<svg xmlns="http://www.w3.org/2000/svg" xmlns:xlink="http://www.w3.org/1999/xlink" width="24" height="24" viewBox="0 0 24 24">
    <defs>
        <path id="a" d="M0 .05h15.26v15.848H0z"/>
        <path id="c" d="M0 16.006h15.26V.157H0z"/>
    </defs>
    <g fill="none" fill-rule="evenodd" transform="translate(4 2)">
        <g transform="translate(0 .107)">
            <mask id="b" fill="#fff">
                <use xlink:href="#a"/>
            </mask>
            <path fill="#606060" d="M10.345 13.754a.55.55 0 0 1 .183.032l2.242.787.035-2.492a.55.55 0 0 1 .054-.232c.017-.034 1.623-3.4 1.245-5.37A6.564 6.564 0 0 0 6.428 1.27 6.567 6.567 0 0 0 1.22 8.947a6.564 6.564 0 0 0 7.676 5.208 8.756 8.756 0 0 0 1.252-.364.552.552 0 0 1 .197-.037m2.966 2.144a.55.55 0 0 1-.183-.031l-2.78-.977c-.265.093-.76.254-1.245.347A7.667 7.667 0 0 1 .137 9.154C-.656 5.005 2.073.983 6.222.188a7.667 7.667 0 0 1 8.966 6.083c.407 2.127-.983 5.297-1.282 5.944l-.043 3.14a.55.55 0 0 1-.551.543" mask="url(#b)"/>
        </g>
        <mask id="d" fill="#fff">
            <use xlink:href="#c"/>
        </mask>
        <path fill="#606060" d="M8.503 7.751a.751.751 0 1 1-1.503 0 .751.751 0 0 1 1.503 0M5.503 7.751a.751.751 0 1 1-1.503 0 .751.751 0 0 1 1.503 0M11.503 7.751a.751.751 0 1 1-1.503 0 .751.751 0 0 1 1.503 0" mask="url(#d)"/>
    </g>
</svg>
