<svg xmlns="http://www.w3.org/2000/svg" width="24" height="24" viewBox="0 0 24 24">
    <g fill="none" fill-rule="evenodd">
        <path fill="#BFC5D2" fill-rule="nonzero" d="M20.827 18.465c-2.27-1.026-2.357-5.427-2.359-5.538V9.974a6.872 6.872 0 0 0-4.204-6.326A2.66 2.66 0 0 0 11.606 1 2.66 2.66 0 0 0 8.95 3.648a6.872 6.872 0 0 0-4.205 6.326v2.953c-.001.111-.088 4.512-2.358 5.538a.602.602 0 0 0 .248 1.151H8.39c.118.65.425 1.253.894 1.743a3.2 3.2 0 0 0 2.322 1.007 3.2 3.2 0 0 0 2.322-1.007c.47-.49.776-1.094.894-1.743h5.756a.603.603 0 0 0 .249-1.151zm-2.991-2.109c.238.724.576 1.45 1.056 2.055H4.32c.479-.604.817-1.33 1.056-2.055h12.459zm-6.23-14.151c.662 0 1.22.444 1.396 1.05a6.866 6.866 0 0 0-2.791 0 1.455 1.455 0 0 1 1.395-1.05zM5.95 12.931V9.974a5.663 5.663 0 0 1 5.657-5.657 5.663 5.663 0 0 1 5.657 5.657v2.962c0 .09.015 1.043.255 2.215H5.694c.24-1.173.255-2.128.255-2.22zm5.657 8.23c-.92 0-1.722-.663-1.98-1.545h3.96c-.258.882-1.06 1.545-1.98 1.545z"/>
        <circle cx="4.5" cy="4.5" r="3.5" fill="#2E5BFF" stroke="#FFF" stroke-width="2" transform="translate(14 2)"/>
    </g>
</svg>
