<svg xmlns="http://www.w3.org/2000/svg" width="24" height="24" viewBox="0 0 24 24">
    <g fill="none" fill-rule="evenodd">
        <g fill="#606060" fill-rule="nonzero">
            <path d="M12.067 3C8.504 3 5.606 5.717 5.606 9.058c0 1.128.333 2.23.964 3.185l5.13 7.75a.547.547 0 0 0 .457.238h.004a.546.546 0 0 0 .458-.246l4.998-7.824a5.767 5.767 0 0 0 .912-3.103C18.529 5.718 15.63 3 12.067 3zm4.626 8.643l-4.544 7.113-4.663-7.045a4.811 4.811 0 0 1-.81-2.653c0-2.784 2.422-5.055 5.391-5.055 2.97 0 5.389 2.271 5.389 5.055 0 .912-.267 1.806-.763 2.585z"/>
            <path d="M12.067 6.23a3.234 3.234 0 0 0-3.23 3.232c0 1.77 1.425 3.23 3.23 3.23 1.828 0 3.231-1.48 3.231-3.23 0-1.782-1.45-3.231-3.23-3.231zm0 5.393a2.163 2.163 0 0 1-2.16-2.161c0-1.188.973-2.161 2.16-2.161 1.188 0 2.158.973 2.158 2.16a2.159 2.159 0 0 1-2.158 2.162z"/>
        </g>
    </g>
</svg>
