<svg xmlns="http://www.w3.org/2000/svg" xmlns:xlink="http://www.w3.org/1999/xlink" width="24" height="24" viewBox="0 0 24 24">
    <defs>
        <path id="a" d="M0 0h14.586v15.91H0z"/>
    </defs>
    <g fill="none" fill-rule="evenodd" transform="translate(5 2)">
        <mask id="b" fill="#fff">
            <use xlink:href="#a"/>
        </mask>
        <path fill="#606060" d="M1.031 14.883h12.524c-.061-4.402-.959-4.548-3.445-4.952-.427-.07-.91-.148-1.427-.255a.514.514 0 0 1-.41-.503V7.676c0-.206.122-.392.312-.472a3.147 3.147 0 0 0 1.731-1.856.516.516 0 0 1 .538-.343c.132-.01.316-.233.316-.577 0-.347-.186-.57-.32-.576a.514.514 0 0 1-.47-.38C10 2.056 8.727 1.028 7.354 1.028c-1.375 0-2.648 1.03-3.026 2.447a.513.513 0 0 1-.568.377c-.136-.021-.341.21-.341.576 0 .353.193.578.327.578A.165.165 0 0 0 3.782 5a.514.514 0 0 1 .606.333c.274.796.869 1.459 1.631 1.82.18.084.295.265.295.464v1.556a.514.514 0 0 1-.41.503c-.518.107-1.001.185-1.427.255-2.487.404-3.384.55-3.446 4.952m13.042 1.027H.513A.514.514 0 0 1 0 15.396c0-5.545 1.322-5.994 4.312-6.48.313-.05.634-.103.974-.166v-.823a4.204 4.204 0 0 1-1.73-1.91c-.657-.11-1.164-.78-1.164-1.589 0-.761.45-1.4 1.052-1.564C4.047 1.16 5.609 0 7.354 0c1.761 0 3.336 1.182 3.927 2.91.536.214.917.813.917 1.518 0 .753-.44 1.386-1.03 1.559A4.18 4.18 0 0 1 9.3 8v.75c.34.063.661.116.974.166 2.99.486 4.312.935 4.312 6.48 0 .284-.23.514-.513.514" mask="url(#b)"/>
    </g>
</svg>
