<svg width="1282" height="486" xmlns="http://www.w3.org/2000/svg" xmlns:xlink="http://www.w3.org/1999/xlink" overflow="hidden"><defs><clipPath id="clip0"><path d="M-1 69 1281 69 1281 555-1 555Z" fill-rule="evenodd" clip-rule="evenodd"/></clipPath></defs><g clip-path="url(#clip0)" transform="translate(1 -69)"><path d="M555 482.234C454.635 482.279 101.387 461.955 0.0223999 462L0 513.843C55.1078 524.183 136.004 541.278 244.21 542.957 320.125 544.142 481.323 520.497 552.945 517.944L555 482.234Z" fill="#F2F2F2" fill-rule="evenodd"/><path d="M33.9535 0C10.3782 94.0962-12.023 394.569 7.36619 496.486L62.8981 500.379C73.2204 445.245 81.8829 392.531 86.9385 327.111 96.261 191.581 71.647 143.677 70.4973 3.621L33.9535 0Z" fill="#F2F2F2" fill-rule="evenodd" transform="matrix(-0.0691445 0.997607 0.997607 0.0691445 785.221 445.192)"/><rect x="0" y="70" width="1280" height="401"/><path d="M0.166565 492C122.665 469.944 176.393 473.029 328.474 470.73 371.324 466.7 322.859 456.098 273.914 451.985 224.968 447.871 77.6784 445.636 34.8013 446.048L0 470.288C0.0740523 476.924 0.0925129 485.364 0.166565 492Z" fill-rule="evenodd"/><path d="M0.0213162 65C43.6404 41.9282 113.264 25.7338 186 26.0111 153.116 25.9926 139.57 0.0184462 106.686 0 78.9034 7.09905 39.785-0.443651 12.0022 6.6554L0.0214213 25.9555C0.0955556 32.2411-0.0528181 58.7145 0.0213162 65Z" fill-rule="evenodd" transform="matrix(-1 -8.74228e-08 -8.74228e-08 1 1280 445)"/><path d="M1076.26 470.615C1130.66 459.98 1109.61 441.801 972.327 436.306 835.045 430.812 391.486 436.741 252.564 437.65 113.643 438.558 131.292 467.559 152.138 470.637 227.927 474.601 323.473 473.592 404.989 489.028 488.505 501.778 551.92 527.927 659.24 529 814.094 528.301 931.609 469.653 1076.26 470.615Z" fill-rule="evenodd"/></g></svg>