<svg width="1282" height="228" xmlns="http://www.w3.org/2000/svg" xmlns:xlink="http://www.w3.org/1999/xlink" overflow="hidden"><defs><clipPath id="clip0"><path d="M-1 375 1281 375 1281 603-1 603Z" fill-rule="evenodd" clip-rule="evenodd"/></clipPath><clipPath id="clip1"><path d="M0 375 1280 375 1280 603 0 603Z" fill-rule="evenodd" clip-rule="evenodd"/></clipPath><clipPath id="clip2"><path d="M0 374 1280 374 1280 603 0 603Z" fill-rule="evenodd" clip-rule="evenodd"/></clipPath><clipPath id="clip3"><path d="M0 116 1280 116 1280 603 0 603Z" fill-rule="evenodd" clip-rule="evenodd"/></clipPath><clipPath id="clip4"><path d="M0 116 1281 116 1281 603 0 603Z" fill-rule="evenodd" clip-rule="evenodd"/></clipPath></defs><g clip-path="url(#clip0)" transform="translate(1 -375)"><g clip-path="url(#clip1)"><g clip-path="url(#clip2)"><g clip-path="url(#clip3)"><g clip-path="url(#clip4)"><path d="M554.134 481.482C453.926 481.527 101.229 461.234 0.022365 461.279L0 513.041C55.0218 523.365 135.792 540.434 243.829 542.11 319.626 543.293 480.572 519.685 552.082 517.136L554.134 481.482Z" fill="#F2F2F2" fill-rule="evenodd" transform="matrix(1 0 -0 1.00207 0.99844 47.7209)"/><path d="M-33.9009 0C-10.3621-93.9504 12.0044-393.957-7.35477-495.717L-62.8006-499.603C-73.1069-444.555-81.756-391.923-86.8038-326.604-96.1118-191.284-71.536-143.454-70.388-3.61539L-33.9009 0Z" fill="#F2F2F2" fill-rule="evenodd" transform="matrix(0.0691438 -0.999658 -0.997616 -0.0690026 784.994 493.137)"/><path d="M0 69.8908 1278 69.8908 1278 470.265 0 470.265Z" transform="matrix(1 0 -0 1.00207 0.99844 47.7209)"/><path d="M0.166305 491.232C122.474 469.211 176.118 472.291 327.962 469.996 370.745 465.972 322.355 455.386 273.487 451.28 224.617 447.172 77.5572 444.941 34.747 445.352L0 469.554C0.0739368 476.18 0.0923686 484.607 0.166305 491.232Z" fill-rule="evenodd" transform="matrix(1 0 -0 1.00207 0.99844 47.7209)"/><path d="M0.0212829 64.8986C43.5723 41.8628 113.087 25.6937 185.71 25.9705 152.877 25.952 139.352 0.0184174 106.52 0 78.7803 7.08798 39.7229-0.442959 11.9835 6.64502L0.0213879 25.915C0.0954065 32.1908-0.0527357 58.6229 0.0212829 64.8986Z" fill-rule="evenodd" transform="matrix(-1 -1.50996e-07 -1.51308e-07 1.00207 1279 492.945)"/><path d="M1074.58 469.881C1128.9 459.262 1107.88 441.112 970.81 435.625 833.742 430.14 390.875 436.06 252.17 436.967 113.466 437.874 131.087 466.83 151.901 469.903 227.571 473.861 322.968 472.853 404.357 488.265 487.743 500.995 551.059 527.103 658.211 528.175 812.824 527.477 930.156 468.92 1074.58 469.881Z" fill-rule="evenodd" transform="matrix(1 0 -0 1.00207 0.99844 47.7209)"/></g></g></g></g></g></svg>