<svg width="117" height="358" xmlns="http://www.w3.org/2000/svg" xmlns:xlink="http://www.w3.org/1999/xlink" overflow="hidden"><defs><clipPath id="clip0"><path d="M216 137 333 137 333 495 216 495Z" fill-rule="evenodd" clip-rule="evenodd"/></clipPath></defs><g clip-path="url(#clip0)" transform="translate(-216 -137)"><path d="M217 138C217.013 176.645 217.026 215.355 217.04 254 223.987 244.169 234.766 237.812 239.75 225.83 244.783 214.746 245.72 214.597 247.734 198.856 248.753 191.296 246.703 176.358 244.05 170.783 239.986 161.767 235.704 153.929 217 138Z" fill="#D9D9D9" fill-rule="evenodd"/><path d="M217 193C217.045 293.278 217.089 393.722 217.134 494 240.489 468.489 291.833 406.416 308.587 375.324 325.509 346.563 326.977 338.362 331.509 322.262 334.935 302.643 332.521 286.021 323.602 273.726 307.142 248.593 255.815 216.968 217 193Z" fill-rule="evenodd"/></g></svg>