<svg width="1294" height="140" viewBox="0 0 1294 140" xmlns="http://www.w3.org/2000/svg" xmlns:xlink="http://www.w3.org/1999/xlink" overflow="hidden"><defs><radialGradient cx="116.708%" cy="110.133%" r="147.8%" fx="116.708%" fy="110.133%" id="radialGradient-1" gradientTransform="matrix(-0.0956505 -0.0944529 0.00907503 -0.995529 1.26872 2.30797)"><stop offset="0" stop-color="#0069FF"/><stop offset="0.029125" stop-color="#0269FD"/><stop offset="0.0450534" stop-color="#0369FC"/><stop offset="0.0600516" stop-color="#0468FB"/><stop offset="0.254822" stop-color="#1165EF"/><stop offset="1" stop-color="#4457C0"/></radialGradient></defs><g id="Ressource" fill="none" fill-rule="evenodd"><g id="wave_header"><g id="Group-4-Copy" transform="translate(-5 0)"><path d="M0 7.64775e-15 1300 0C1299.84 26.6568 1299.84 69.7044 1300 129.143 990.96 139.998 1034.97 114.449 701.503 123.932 368.04 133.415 390.606 144.317 0 121.343 1 88.1264 1 47.6788 0 7.64775e-15Z" id="Wave" fill="#000000"/><path d="M1 0 925.701 0 1302 0C1302 60.1195 1302 98.4763 1302 115.07 1221.61 111.87 1147.81 107.196 958.282 111.87 768.75 116.543 701.824 135.236 426.321 117.515 242.653 105.701 100.879 106.571 1 120.123L1 0Z" id="Wave" fill="#000000" transform="matrix(-1 0 0 1 1303 0)"/></g></g></g></svg>